<svg width="120" height="120" viewBox="0 0 120 120" fill="none" xmlns="http://www.w3.org/2000/svg">
<rect x="1.5" y="1.5" width="117" height="117" rx="22.5" fill="white"/>
<rect x="1.5" y="1.5" width="117" height="117" rx="22.5" stroke="#33CCB7" stroke-width="3"/>
<path d="M56.3178 31.5078V89.5234C56.3178 94 52.9037 97.6328 48.6928 97.6328C47.1464 97.599 45.6465 97.097 44.3912 96.1932C43.1359 95.2894 42.1842 94.0262 41.6616 92.5703C41.4037 92.6172 41.1381 92.6562 40.8803 92.6797C40.6852 92.6914 40.4895 92.6914 40.2944 92.6797C36.0834 92.6797 32.6694 89.0469 32.6694 84.5703C32.6694 84.4844 32.6694 84.3984 32.6694 84.3125C32.6775 84.0509 32.701 83.7901 32.7397 83.5312C31.9783 83.7545 31.1894 83.8702 30.3959 83.875C25.6303 83.875 21.8022 79.7656 21.8022 74.7031C21.7873 73.5977 21.9644 72.498 22.3256 71.4531C22.407 71.2078 22.5036 70.9678 22.6147 70.7344C20.625 69.9586 18.906 68.6173 17.6697 66.8761C16.4334 65.1348 15.7338 63.0697 15.6574 60.9355C15.581 58.8013 16.131 56.6915 17.2396 54.8662C18.3482 53.041 19.9669 51.5802 21.8959 50.6641C22.1303 50.5547 22.3725 50.4609 22.6147 50.375L22.56 50.2578C22.0173 49.0271 21.7379 47.6966 21.7397 46.3516C21.7397 41.2891 25.5991 37.1797 30.3334 37.1797C31.1059 37.1834 31.8739 37.2965 32.6147 37.5156C32.6147 37.4063 32.6147 37.2969 32.6147 37.1797C32.6147 32.7031 36.0287 29.0703 40.2397 29.0703C40.6137 29.0776 40.9869 29.1089 41.3569 29.1641C41.425 28.8981 41.5112 28.6371 41.6147 28.3828C42.1459 26.9383 43.1019 25.6883 44.3568 24.7973C45.6118 23.9063 47.107 23.4159 48.6459 23.3906C52.9037 23.3984 56.3178 27.0313 56.3178 31.5078Z" fill="#00BFA5"/>
<path d="M41.631 92.547C41.3731 92.5939 41.1075 92.6329 40.8497 92.6564C40.5089 91.7012 40.3371 90.694 40.3419 89.6798C40.3419 89.5762 40.3831 89.4769 40.4563 89.4036C40.5296 89.3303 40.6289 89.2892 40.7325 89.2892C40.8361 89.2892 40.9355 89.3303 41.0087 89.4036C41.082 89.4769 41.1231 89.5762 41.1231 89.6798C41.1179 90.6584 41.2899 91.6298 41.631 92.547Z" fill="#039985"/>
<path d="M44.8975 30.2734C44.8616 30.3249 44.8136 30.3668 44.7578 30.3955C44.7019 30.4241 44.6399 30.4385 44.5771 30.4375C44.4963 30.4371 44.4174 30.4126 44.3506 30.3672C43.4781 29.7338 42.4694 29.3137 41.4053 29.1406C41.4734 28.8747 41.5596 28.6137 41.6631 28.3594C42.7913 28.5662 43.859 29.0227 44.7881 29.6953C44.8352 29.7244 44.8757 29.763 44.9071 29.8086C44.9384 29.8542 44.96 29.9059 44.9702 29.9603C44.9805 30.0147 44.9794 30.0706 44.9668 30.1245C44.9543 30.1784 44.9307 30.2292 44.8975 30.2734Z" fill="#039985"/>
<path d="M43.5371 37.5391C43.4335 37.5391 43.3342 37.4979 43.2609 37.4247C43.1876 37.3514 43.1465 37.252 43.1465 37.1484C43.1718 36.3636 42.8851 35.6007 42.3492 35.0267C41.8133 34.4527 41.0719 34.1145 40.2871 34.0859C40.1835 34.0859 40.0842 34.0448 40.0109 33.9715C39.9376 33.8983 39.8965 33.7989 39.8965 33.6953C39.8965 33.5917 39.9376 33.4924 40.0109 33.4191C40.0842 33.3458 40.1835 33.3047 40.2871 33.3047C41.279 33.3333 42.2192 33.7539 42.9016 34.4744C43.584 35.1949 43.953 36.1564 43.9277 37.1484C43.9277 37.252 43.8866 37.3514 43.8133 37.4247C43.7401 37.4979 43.6407 37.5391 43.5371 37.5391Z" fill="#039985"/>
<path d="M30.3496 55.5392C30.3496 55.6428 30.3085 55.7421 30.2352 55.8154C30.1619 55.8887 30.0626 55.9298 29.959 55.9298C28.2466 55.9177 26.5742 55.4104 25.1436 54.4692C23.7131 53.5279 22.5853 52.1929 21.8965 50.6251C22.1309 50.5157 22.373 50.422 22.6152 50.3361C23.2513 51.7562 24.2811 52.9643 25.5827 53.8172C26.8842 54.6702 28.403 55.1322 29.959 55.1486C30.0626 55.1486 30.1619 55.1897 30.2352 55.263C30.3085 55.3362 30.3496 55.4356 30.3496 55.5392Z" fill="#039985"/>
<path d="M26.1698 48.3202C26.0937 48.3195 26.0195 48.297 25.9558 48.2555C25.8922 48.214 25.8417 48.1551 25.8104 48.0858C25.5651 47.5199 25.4385 46.9096 25.4385 46.2928C25.4385 45.676 25.5651 45.0658 25.8104 44.4999C26.3095 43.3158 27.2433 42.368 28.4198 41.8514C28.5075 41.8308 28.5996 41.8411 28.6805 41.8807C28.7614 41.9202 28.8262 41.9864 28.8639 42.0682C28.9016 42.1501 28.9099 42.2424 28.8873 42.3296C28.8647 42.4168 28.8127 42.4935 28.7401 42.5467C27.7481 42.98 26.9597 43.7768 26.537 44.7733C26.3301 45.2422 26.2233 45.7491 26.2233 46.2616C26.2233 46.7741 26.3301 47.281 26.537 47.7499C26.5576 47.797 26.5688 47.8478 26.5698 47.8993C26.5708 47.9508 26.5615 48.002 26.5427 48.0499C26.5238 48.0979 26.4956 48.1416 26.4598 48.1786C26.4239 48.2156 26.3811 48.2451 26.3338 48.2655C26.2845 48.2971 26.2282 48.3159 26.1698 48.3202Z" fill="#039985"/>
<path d="M30.3748 80.5547C29.2833 80.5508 28.2348 80.1286 27.4451 79.375C27.3695 79.3036 27.3254 79.205 27.3224 79.1009C27.3195 78.9969 27.358 78.896 27.4295 78.8204C27.501 78.7447 27.5996 78.7006 27.7036 78.6977C27.8076 78.6947 27.9085 78.7333 27.9842 78.8047C28.5992 79.4178 29.4322 79.762 30.3006 79.762C31.169 79.762 32.0019 79.4178 32.617 78.8047C32.6524 78.7673 32.6948 78.7372 32.7418 78.7161C32.7889 78.6951 32.8396 78.6835 32.8911 78.682C32.9426 78.6806 32.9939 78.6893 33.042 78.7077C33.0902 78.726 33.1342 78.7537 33.1717 78.7891C33.2091 78.8245 33.2392 78.8669 33.2603 78.914C33.2813 78.961 33.2929 79.0117 33.2944 79.0632C33.2958 79.1147 33.2871 79.166 33.2687 79.2142C33.2504 79.2623 33.2227 79.3063 33.1873 79.3438C32.8265 79.7276 32.3907 80.0331 31.9068 80.2414C31.423 80.4497 30.9016 80.5564 30.3748 80.5547Z" fill="#039985"/>
<path d="M26.0117 71.5937C26.0117 71.6973 25.9706 71.7967 25.8973 71.87C25.8241 71.9432 25.7247 71.9844 25.6211 71.9844C24.5002 71.9924 23.3858 71.8129 22.3242 71.4531C22.4056 71.2078 22.5022 70.9678 22.6133 70.7344C23.5819 71.0641 24.5979 71.233 25.6211 71.2344C25.7195 71.2341 25.8144 71.2709 25.8868 71.3375C25.9592 71.4042 26.0038 71.4957 26.0117 71.5937Z" fill="#039985"/>
<path d="M35.2939 83.1171C34.5279 83.6519 33.6813 84.0607 32.7861 84.328H32.6768H32.6455C32.6537 84.0665 32.6771 83.8056 32.7158 83.5468C33.4773 83.3022 34.1985 82.9468 34.8564 82.4921C34.9415 82.4393 35.0435 82.4212 35.1416 82.4414C35.2396 82.4617 35.3261 82.5188 35.3832 82.601C35.4403 82.6832 35.4637 82.7842 35.4486 82.8831C35.4334 82.982 35.3809 83.0714 35.3018 83.1327L35.2939 83.1171Z" fill="#039985"/>
<path d="M42.5361 80.7344H39.6768C39.4463 80.7354 39.2179 80.6909 39.0047 80.6034C38.7914 80.5159 38.5976 80.3872 38.4343 80.2246C38.2709 80.062 38.1413 79.8687 38.0529 79.6559C37.9645 79.4431 37.9189 79.2148 37.9189 78.9844V76.2109C37.9189 76.1073 37.9601 76.008 38.0334 75.9347C38.1066 75.8615 38.206 75.8203 38.3096 75.8203C38.4132 75.8203 38.5125 75.8615 38.5858 75.9347C38.659 76.008 38.7002 76.1073 38.7002 76.2109V78.9844C38.7023 79.242 38.8061 79.4884 38.989 79.6699C39.1719 79.8513 39.4191 79.9531 39.6768 79.9531H42.5361C42.6391 79.9551 42.7373 79.9969 42.8101 80.0698C42.883 80.1426 42.9248 80.2408 42.9268 80.3438C42.9268 80.4474 42.8856 80.5467 42.8123 80.62C42.7391 80.6932 42.6397 80.7344 42.5361 80.7344Z" fill="#039985"/>
<path d="M41.4912 43.0859H35.6084C35.5048 43.0859 35.4054 43.0448 35.3322 42.9715C35.2589 42.8983 35.2178 42.7989 35.2178 42.6953C35.2178 42.5917 35.2589 42.4924 35.3322 42.4191C35.4054 42.3458 35.5048 42.3047 35.6084 42.3047H41.4912C41.5948 42.3047 41.6942 42.3458 41.7674 42.4191C41.8407 42.4924 41.8818 42.5917 41.8818 42.6953C41.8818 42.7989 41.8407 42.8983 41.7674 42.9715C41.6942 43.0448 41.5948 43.0859 41.4912 43.0859Z" fill="#039985"/>
<path d="M97.4004 70.6716C97.5128 70.9071 97.6094 71.1498 97.6894 71.3982C98.0764 72.4516 98.2747 73.565 98.2754 74.6873C98.2754 79.7498 94.416 83.8591 89.6816 83.8591C88.9256 83.8562 88.1737 83.7484 87.4473 83.5388H87.3379C87.3537 83.8094 87.3537 84.0807 87.3379 84.3513V84.5935C87.3379 89.0701 83.9238 92.7029 79.7129 92.7029C79.5177 92.7145 79.3221 92.7145 79.1269 92.7029C78.8613 92.7029 78.5957 92.6404 78.3457 92.5935V92.656C77.8161 94.1028 76.861 95.3555 75.606 96.2494C74.351 97.1432 72.8549 97.6363 71.3144 97.6638C67.1035 97.6638 63.6895 94.031 63.6895 89.5544V31.5076C63.6895 27.031 67.1035 23.3982 71.3144 23.3982C72.8534 23.4235 74.3486 23.9138 75.6036 24.8049C76.8585 25.6959 77.8145 26.9458 78.3457 28.3904C78.4492 28.6447 78.5354 28.9057 78.6035 29.1716C78.9709 29.1164 79.3415 29.0851 79.7129 29.0779C83.9238 29.0779 87.3379 32.7107 87.3379 37.1873V37.5232C88.0786 37.3041 88.8467 37.191 89.6191 37.1873C94.3848 37.1873 98.2129 41.2966 98.2129 46.3591C98.2209 47.7366 97.9359 49.1001 97.3769 50.3591C97.6191 50.4451 97.8613 50.5388 98.1035 50.6482C100.019 51.569 101.625 53.0281 102.725 54.8469C103.824 56.6657 104.37 58.7656 104.296 60.8897C104.221 63.0138 103.529 65.0702 102.305 66.8074C101.08 68.5446 99.3758 69.8874 97.4004 70.6716Z" fill="#00BFA5"/>
<path d="M79.666 89.6558C79.6662 90.6836 79.4892 91.7038 79.1426 92.6714C78.877 92.6714 78.6113 92.6089 78.3613 92.562C78.7133 91.6335 78.8934 90.6487 78.8926 89.6558C78.8926 89.5522 78.9337 89.4528 79.007 89.3795C79.0802 89.3063 79.1796 89.2651 79.2832 89.2651C79.3854 89.2672 79.4828 89.3092 79.5544 89.3823C79.626 89.4553 79.666 89.5535 79.666 89.6558Z" fill="#039985"/>
<path d="M78.5831 29.1404C77.2971 29.3551 76.0961 29.9231 75.1143 30.781C75.0425 30.8424 74.9509 30.8757 74.8565 30.8748C74.7763 30.8756 74.6978 30.8517 74.6317 30.8063C74.5655 30.761 74.5149 30.6964 74.4868 30.6213C74.4586 30.5462 74.4543 30.4643 74.4743 30.3866C74.4943 30.309 74.5377 30.2394 74.5987 30.1873C75.6585 29.2669 76.9451 28.6465 78.3252 28.3904C78.4275 28.6345 78.5136 28.885 78.5831 29.1404Z" fill="#039985"/>
<path d="M76.4475 37.5388C76.3439 37.5388 76.2445 37.4977 76.1713 37.4244C76.098 37.3512 76.0569 37.2518 76.0569 37.1482C76.0317 36.1562 76.4007 35.1946 77.0831 34.4741C77.7654 33.7537 78.7056 33.3331 79.6975 33.3044C79.8011 33.3044 79.9005 33.3456 79.9737 33.4189C80.047 33.4921 80.0881 33.5915 80.0881 33.6951C80.0881 33.7987 80.047 33.898 79.9737 33.9713C79.9005 34.0445 79.8011 34.0857 79.6975 34.0857C78.9128 34.1142 78.1713 34.4525 77.6354 35.0265C77.0995 35.6004 76.8128 36.3633 76.8381 37.1482C76.8381 37.2518 76.797 37.3512 76.7237 37.4244C76.6505 37.4977 76.5511 37.5388 76.4475 37.5388Z" fill="#039985"/>
<path d="M98.0977 50.6245C97.4012 52.182 96.2716 53.5065 94.8435 54.4401C93.4154 55.3736 91.7491 55.877 90.043 55.8901C89.9394 55.8901 89.84 55.849 89.7668 55.7757C89.6935 55.7025 89.6523 55.6031 89.6523 55.4995C89.6523 55.3959 89.6935 55.2966 89.7668 55.2233C89.84 55.15 89.9394 55.1089 90.043 55.1089C91.5893 55.0941 93.0995 54.6396 94.3971 53.7985C95.6947 52.9574 96.7262 51.7644 97.3711 50.3589C97.6133 50.4214 97.8555 50.5151 98.0977 50.6245Z" fill="#039985"/>
<path d="M94.3262 47.7651C94.2796 47.7726 94.2321 47.7726 94.1856 47.7651C94.0891 47.7267 94.0114 47.6521 93.9691 47.5573C93.9267 47.4624 93.9231 47.3548 93.959 47.2573C94.2877 46.2523 94.2052 45.1581 93.7294 44.2138C93.2536 43.2695 92.4233 42.552 91.4199 42.2182C91.3233 42.1797 91.2451 42.1056 91.2015 42.0111C91.1578 41.9166 91.1522 41.809 91.1856 41.7104C91.2029 41.6623 91.2297 41.6181 91.2645 41.5805C91.2992 41.5429 91.3411 41.5126 91.3877 41.4915C91.4343 41.4704 91.4847 41.4588 91.5359 41.4575C91.587 41.4562 91.6379 41.4652 91.6856 41.4839C92.8854 41.8881 93.8758 42.7518 94.4397 43.8854C95.0036 45.019 95.0948 46.33 94.6934 47.5307C94.6607 47.6006 94.6089 47.6598 94.5439 47.7013C94.4788 47.7428 94.4033 47.7649 94.3262 47.7651Z" fill="#039985"/>
<path d="M97.6602 71.4526C96.5908 71.8287 95.4656 72.0215 94.332 72.023C94.2284 72.023 94.1291 71.9818 94.0558 71.9085C93.9826 71.8353 93.9414 71.7359 93.9414 71.6323C93.9414 71.5287 93.9826 71.4294 94.0558 71.3561C94.1291 71.2829 94.2284 71.2417 94.332 71.2417C95.3666 71.2387 96.3935 71.0645 97.3711 70.7261C97.4835 70.9616 97.5801 71.2043 97.6602 71.4526Z" fill="#039985"/>
<path d="M87.2774 83.5308C87.3144 83.8028 87.3353 84.0767 87.3399 84.3511C87.3065 84.3586 87.2718 84.3586 87.2383 84.3511C85.4881 83.8347 83.9371 82.7962 82.793 81.3746C82.7607 81.3346 82.7366 81.2886 82.722 81.2392C82.7075 81.1899 82.7028 81.1382 82.7083 81.087C82.7192 80.9838 82.7708 80.8891 82.8516 80.8238C82.9324 80.7585 83.0359 80.728 83.1391 80.739C83.2424 80.75 83.3371 80.8016 83.4024 80.8824C84.4276 82.1593 85.8131 83.0984 87.379 83.5777L87.2774 83.5308Z" fill="#039985"/>
<path d="M81.2705 44.4996H78.4971C78.3935 44.4996 78.2941 44.4585 78.2209 44.3852C78.1476 44.312 78.1064 44.2126 78.1064 44.109C78.1064 44.0054 78.1476 43.9061 78.2209 43.8328C78.2941 43.7595 78.3935 43.7184 78.4971 43.7184H81.2705C81.5282 43.7184 81.7754 43.6166 81.9583 43.4351C82.1412 43.2537 82.245 43.0073 82.2471 42.7496V39.8903C82.2471 39.7867 82.2882 39.6873 82.3615 39.614C82.4347 39.5408 82.5341 39.4996 82.6377 39.4996C82.7413 39.4996 82.8407 39.5408 82.9139 39.614C82.9872 39.6873 83.0283 39.7867 83.0283 39.8903V42.7496C83.0263 43.2145 82.8401 43.6596 82.5107 43.9875C82.1813 44.3155 81.7354 44.4996 81.2705 44.4996Z" fill="#039985"/>
<path d="M85.4697 76.9214H80.665C80.5614 76.9214 80.4621 76.8802 80.3888 76.807C80.3156 76.7337 80.2744 76.6344 80.2744 76.5308C80.2744 76.4272 80.3156 76.3278 80.3888 76.2545C80.4621 76.1813 80.5614 76.1401 80.665 76.1401H85.4697C85.5733 76.1401 85.6727 76.1813 85.7459 76.2545C85.8192 76.3278 85.8604 76.4272 85.8604 76.5308C85.8604 76.6344 85.8192 76.7337 85.7459 76.807C85.6727 76.8802 85.5733 76.9214 85.4697 76.9214Z" fill="#039985"/>
<path d="M90.9658 80.7575C90.8622 80.7575 90.7629 80.7163 90.6896 80.6431C90.6164 80.5698 90.5752 80.4705 90.5752 80.3669C90.5752 80.2633 90.6164 80.1639 90.6896 80.0906C90.7629 80.0174 90.8622 79.9762 90.9658 79.9762C91.8146 79.919 92.6122 79.5498 93.205 78.9396C93.7978 78.3295 94.144 77.5216 94.1768 76.6715C94.1867 76.5671 94.2374 76.4709 94.3178 76.4036C94.3982 76.3363 94.5019 76.3035 94.6064 76.3122C94.7094 76.324 94.8037 76.3755 94.8694 76.4557C94.935 76.5359 94.9668 76.6386 94.958 76.7418C94.8995 77.7778 94.4647 78.7567 93.7354 79.4947C93.006 80.2327 92.0323 80.679 90.9971 80.7497L90.9658 80.7575Z" fill="#039985"/>
<path d="M43.2637 60.9061H25.0527C24.9491 60.9061 24.8498 60.865 24.7765 60.7917C24.7033 60.7185 24.6621 60.6191 24.6621 60.5155C24.6621 60.4119 24.7033 60.3125 24.7765 60.2393C24.8498 60.166 24.9491 60.1249 25.0527 60.1249H43.2637C43.3673 60.1249 43.4666 60.166 43.5399 60.2393C43.6131 60.3125 43.6543 60.4119 43.6543 60.5155C43.6543 60.6191 43.6131 60.7185 43.5399 60.7917C43.4666 60.865 43.3673 60.9061 43.2637 60.9061Z" fill="#4BD8BD"/>
<path d="M43.2627 69.9999H35.1221C35.0185 69.9999 34.9191 69.9587 34.8459 69.8855C34.7726 69.8122 34.7314 69.7129 34.7314 69.6093C34.7314 69.5057 34.7726 69.4063 34.8459 69.333C34.9191 69.2598 35.0185 69.2186 35.1221 69.2186H43.2627C43.3663 69.2186 43.4657 69.2598 43.5389 69.333C43.6122 69.4063 43.6533 69.5057 43.6533 69.6093C43.6533 69.7129 43.6122 69.8122 43.5389 69.8855C43.4657 69.9587 43.3663 69.9999 43.2627 69.9999Z" fill="#4BD8BD"/>
<path d="M43.2627 51.8124H35.1221C35.0185 51.8124 34.9191 51.7712 34.8459 51.698C34.7726 51.6247 34.7314 51.5254 34.7314 51.4218C34.7314 51.3182 34.7726 51.2188 34.8459 51.1455C34.9191 51.0723 35.0185 51.0311 35.1221 51.0311H43.2627C43.3663 51.0311 43.4657 51.0723 43.5389 51.1455C43.6122 51.2188 43.6533 51.3182 43.6533 51.4218C43.6533 51.5254 43.6122 51.6247 43.5389 51.698C43.4657 51.7712 43.3663 51.8124 43.2627 51.8124Z" fill="#4BD8BD"/>
<path d="M94.958 60.9061H76.7471C76.6435 60.9061 76.5441 60.865 76.4709 60.7917C76.3976 60.7185 76.3564 60.6191 76.3564 60.5155C76.3564 60.4119 76.3976 60.3125 76.4709 60.2393C76.5441 60.166 76.6435 60.1249 76.7471 60.1249H94.958C95.0616 60.1249 95.161 60.166 95.2342 60.2393C95.3075 60.3125 95.3486 60.4119 95.3486 60.5155C95.3486 60.6191 95.3075 60.7185 95.2342 60.7917C95.161 60.865 95.0616 60.9061 94.958 60.9061Z" fill="#4BD8BD"/>
<path d="M84.8877 51.8124H76.7471C76.6435 51.8124 76.5441 51.7712 76.4709 51.698C76.3976 51.6247 76.3564 51.5254 76.3564 51.4218C76.3564 51.3182 76.3976 51.2188 76.4709 51.1455C76.5441 51.0723 76.6435 51.0311 76.7471 51.0311H84.8877C84.9913 51.0311 85.0907 51.0723 85.1639 51.1455C85.2372 51.2188 85.2783 51.3182 85.2783 51.4218C85.2783 51.5254 85.2372 51.6247 85.1639 51.698C85.0907 51.7712 84.9913 51.8124 84.8877 51.8124Z" fill="#4BD8BD"/>
<path d="M84.8877 69.9999H76.7471C76.6435 69.9999 76.5441 69.9587 76.4709 69.8855C76.3976 69.8122 76.3564 69.7129 76.3564 69.6093C76.3564 69.5057 76.3976 69.4063 76.4709 69.333C76.5441 69.2598 76.6435 69.2186 76.7471 69.2186H84.8877C84.9913 69.2186 85.0907 69.2598 85.1639 69.333C85.2372 69.4063 85.2783 69.5057 85.2783 69.6093C85.2783 69.7129 85.2372 69.8122 85.1639 69.8855C85.0907 69.9587 84.9913 69.9999 84.8877 69.9999Z" fill="#4BD8BD"/>
<path d="M50.9131 44.1642C50.8095 44.1642 50.7101 44.123 50.6369 44.0498C50.5636 43.9765 50.5225 43.8772 50.5225 43.7736V35.6329C50.5225 35.5293 50.5636 35.43 50.6369 35.3567C50.7101 35.2835 50.8095 35.2423 50.9131 35.2423C51.0167 35.2423 51.116 35.2835 51.1893 35.3567C51.2626 35.43 51.3037 35.5293 51.3037 35.6329V43.7736C51.3037 43.8772 51.2626 43.9765 51.1893 44.0498C51.116 44.123 51.0167 44.1642 50.9131 44.1642Z" fill="#4BD8BD"/>
<path d="M69.1006 44.1642C68.997 44.1642 68.8976 44.123 68.8244 44.0498C68.7511 43.9765 68.71 43.8772 68.71 43.7736V35.6329C68.71 35.5293 68.7511 35.43 68.8244 35.3567C68.8976 35.2835 68.997 35.2423 69.1006 35.2423C69.2042 35.2423 69.3035 35.2835 69.3768 35.3567C69.4501 35.43 69.4912 35.5293 69.4912 35.6329V43.7736C69.4912 43.8772 69.4501 43.9765 69.3768 44.0498C69.3035 44.123 69.2042 44.1642 69.1006 44.1642Z" fill="#4BD8BD"/>
<path d="M69.1006 85.7892C68.997 85.7892 68.8976 85.748 68.8244 85.6748C68.7511 85.6015 68.71 85.5022 68.71 85.3986V77.2579C68.71 77.1543 68.7511 77.055 68.8244 76.9817C68.8976 76.9085 68.997 76.8673 69.1006 76.8673C69.2042 76.8673 69.3035 76.9085 69.3768 76.9817C69.4501 77.055 69.4912 77.1543 69.4912 77.2579V85.3986C69.4912 85.5022 69.4501 85.6015 69.3768 85.6748C69.3035 85.748 69.2042 85.7892 69.1006 85.7892Z" fill="#4BD8BD"/>
<path d="M50.9131 85.7892C50.8095 85.7892 50.7101 85.748 50.6369 85.6748C50.5636 85.6015 50.5225 85.5022 50.5225 85.3986V77.2579C50.5225 77.1543 50.5636 77.055 50.6369 76.9817C50.7101 76.9085 50.8095 76.8673 50.9131 76.8673C51.0167 76.8673 51.116 76.9085 51.1893 76.9817C51.2626 77.055 51.3037 77.1543 51.3037 77.2579V85.3986C51.3037 85.5022 51.2626 85.6015 51.1893 85.6748C51.116 85.748 51.0167 85.7892 50.9131 85.7892Z" fill="#4BD8BD"/>
<path d="M60.0068 44.1641C59.9032 44.1641 59.8039 44.1229 59.7306 44.0497C59.6574 43.9764 59.6162 43.877 59.6162 43.7734V25.5625C59.6162 25.4589 59.6574 25.3595 59.7306 25.2863C59.8039 25.213 59.9032 25.1719 60.0068 25.1719C60.1104 25.1719 60.2098 25.213 60.283 25.2863C60.3563 25.3595 60.3975 25.4589 60.3975 25.5625V43.7734C60.3975 43.877 60.3563 43.9764 60.283 44.0497C60.2098 44.1229 60.1104 44.1641 60.0068 44.1641Z" fill="#4BD8BD"/>
<path d="M60.0068 95.8595C59.9032 95.8595 59.8039 95.8183 59.7306 95.7451C59.6574 95.6718 59.6162 95.5725 59.6162 95.4689V77.2579C59.6162 77.1543 59.6574 77.055 59.7306 76.9817C59.8039 76.9085 59.9032 76.8673 60.0068 76.8673C60.1104 76.8673 60.2098 76.9085 60.283 76.9817C60.3563 77.055 60.3975 77.1543 60.3975 77.2579V95.4689C60.3975 95.5725 60.3563 95.6718 60.283 95.7451C60.2098 95.8183 60.1104 95.8595 60.0068 95.8595Z" fill="#4BD8BD"/>
<path d="M72.0488 43.7736H47.9473C45.3584 43.7736 43.2598 45.8722 43.2598 48.4611V72.5626C43.2598 75.1515 45.3584 77.2501 47.9473 77.2501H72.0488C74.6377 77.2501 76.7363 75.1515 76.7363 72.5626V48.4611C76.7363 45.8722 74.6377 43.7736 72.0488 43.7736Z" fill="#047E6D"/>
<path d="M61.4426 62.5234C61.446 62.508 61.446 62.492 61.4426 62.4766C61.4395 62.37 61.3946 62.269 61.3176 62.1953L58.0208 52.5625C57.9965 52.4776 57.9453 52.4029 57.8748 52.3497C57.8043 52.2966 57.7184 52.2678 57.6301 52.2678C57.5418 52.2678 57.456 52.2966 57.3855 52.3497C57.315 52.4029 57.2638 52.4776 57.2395 52.5625L51.8567 68.1875C51.8328 68.2373 51.8198 68.2915 51.8185 68.3467C51.8171 68.4019 51.8275 68.4567 51.8489 68.5076C51.8703 68.5585 51.9022 68.6043 51.9426 68.6419C51.983 68.6796 52.0308 68.7082 52.0831 68.726C52.1354 68.7438 52.1908 68.7503 52.2457 68.7451C52.3007 68.7399 52.3539 68.7232 52.4019 68.6959C52.4499 68.6686 52.4916 68.6315 52.5242 68.587C52.5568 68.5424 52.5796 68.4915 52.5911 68.4375L54.5364 62.8594H60.7161L62.6458 68.4609C62.6707 68.5385 62.7198 68.6061 62.7858 68.6539C62.8519 68.7017 62.9314 68.7271 63.0129 68.7266C63.0543 68.734 63.0966 68.734 63.1379 68.7266C63.2349 68.6928 63.3146 68.6222 63.36 68.5301C63.4053 68.438 63.4125 68.3318 63.3801 68.2344L61.4426 62.5234ZM54.8254 62.0781L57.6614 53.8906L60.4661 62.0781H54.8254Z" fill="white"/>
<path d="M67.7451 52.2971C67.6415 52.2971 67.5422 52.3383 67.4689 52.4115C67.3956 52.4848 67.3545 52.5841 67.3545 52.6877V68.3284C67.3545 68.432 67.3956 68.5313 67.4689 68.6046C67.5422 68.6778 67.6415 68.719 67.7451 68.719C67.8487 68.719 67.9481 68.6778 68.0213 68.6046C68.0946 68.5313 68.1357 68.432 68.1357 68.3284V52.7034C68.1378 52.6508 68.1293 52.5983 68.1106 52.5491C68.0919 52.4999 68.0635 52.4549 68.027 52.417C67.9905 52.3791 67.9467 52.3489 67.8983 52.3283C67.8499 52.3077 67.7978 52.2971 67.7451 52.2971Z" fill="white"/>
<path d="M25.0527 60.5159C25.0527 60.8929 24.9409 61.2614 24.7315 61.5749C24.522 61.8884 24.2243 62.1327 23.876 62.277C23.5277 62.4213 23.1444 62.459 22.7746 62.3855C22.4048 62.3119 22.0652 62.1304 21.7986 61.8638C21.532 61.5972 21.3504 61.2575 21.2769 60.8878C21.2033 60.518 21.2411 60.1347 21.3853 59.7864C21.5296 59.4381 21.7739 59.1403 22.0874 58.9309C22.4009 58.7214 22.7695 58.6096 23.1465 58.6096C23.6521 58.6096 24.1369 58.8105 24.4944 59.1679C24.8519 59.5254 25.0527 60.0103 25.0527 60.5159Z" fill="#83FFD2"/>
<path d="M35.1191 69.6097C35.1191 69.9868 35.0073 70.3553 34.7979 70.6688C34.5884 70.9823 34.2907 71.2266 33.9424 71.3709C33.5941 71.5152 33.2108 71.5529 32.841 71.4794C32.4712 71.4058 32.1316 71.2243 31.865 70.9577C31.5984 70.6911 31.4168 70.3514 31.3433 69.9816C31.2697 69.6119 31.3075 69.2286 31.4517 68.8803C31.596 68.5319 31.8404 68.2342 32.1538 68.0248C32.4673 67.8153 32.8359 67.7035 33.2129 67.7035C33.7185 67.7035 34.2033 67.9043 34.5608 68.2618C34.9183 68.6193 35.1191 69.1042 35.1191 69.6097Z" fill="#83FFD2"/>
<path d="M35.1191 51.4221C35.1191 51.7991 35.0073 52.1677 34.7979 52.4812C34.5884 52.7947 34.2907 53.039 33.9424 53.1833C33.5941 53.3275 33.2108 53.3653 32.841 53.2917C32.4712 53.2182 32.1316 53.0366 31.865 52.77C31.5984 52.5035 31.4168 52.1638 31.3433 51.794C31.2697 51.4242 31.3075 51.041 31.4517 50.6926C31.596 50.3443 31.8404 50.0466 32.1538 49.8371C32.4673 49.6277 32.8359 49.5159 33.2129 49.5159C33.7185 49.5159 34.2033 49.7167 34.5608 50.0742C34.9183 50.4317 35.1191 50.9166 35.1191 51.4221Z" fill="#83FFD2"/>
<path d="M60.001 25.5625C59.624 25.5625 59.2554 25.4507 58.9419 25.2412C58.6284 25.0318 58.3841 24.7341 58.2398 24.3857C58.0956 24.0374 58.0578 23.6541 58.1314 23.2844C58.2049 22.9146 58.3865 22.5749 58.6531 22.3083C58.9196 22.0417 59.2593 21.8602 59.6291 21.7866C59.9989 21.7131 60.3821 21.7508 60.7305 21.8951C61.0788 22.0394 61.3765 22.2837 61.586 22.5972C61.7954 22.9107 61.9072 23.2792 61.9072 23.6563C61.9072 24.1618 61.7064 24.6467 61.3489 25.0042C60.9914 25.3617 60.5065 25.5625 60.001 25.5625Z" fill="#83FFD2"/>
<path d="M50.9033 35.6331C50.5263 35.6331 50.1577 35.5213 49.8443 35.3118C49.5308 35.1023 49.2865 34.8046 49.1422 34.4563C48.9979 34.108 48.9601 33.7247 49.0337 33.3549C49.1073 32.9851 49.2888 32.6455 49.5554 32.3789C49.822 32.1123 50.1617 31.9307 50.5314 31.8572C50.9012 31.7836 51.2845 31.8214 51.6328 31.9657C51.9811 32.1099 52.2788 32.3543 52.4883 32.6678C52.6978 32.9812 52.8096 33.3498 52.8096 33.7268C52.8096 34.2324 52.6087 34.7172 52.2512 35.0747C51.8938 35.4322 51.4089 35.6331 50.9033 35.6331Z" fill="#83FFD2"/>
<path d="M69.0908 35.6331C68.7138 35.6331 68.3452 35.5213 68.0318 35.3118C67.7183 35.1023 67.474 34.8046 67.3297 34.4563C67.1854 34.108 67.1476 33.7247 67.2212 33.3549C67.2948 32.9851 67.4763 32.6455 67.7429 32.3789C68.0095 32.1123 68.3492 31.9307 68.7189 31.8572C69.0887 31.7836 69.472 31.8214 69.8203 31.9657C70.1686 32.1099 70.4663 32.3543 70.6758 32.6678C70.8853 32.9812 70.9971 33.3498 70.9971 33.7268C70.9971 34.2324 70.7962 34.7172 70.4387 35.0747C70.0813 35.4322 69.5964 35.6331 69.0908 35.6331Z" fill="#83FFD2"/>
<path d="M94.957 60.5159C94.957 60.1388 95.0688 59.7703 95.2783 59.4568C95.4878 59.1433 95.7855 58.899 96.1338 58.7547C96.4821 58.6104 96.8654 58.5727 97.2352 58.6462C97.605 58.7198 97.9446 58.9014 98.2112 59.1679C98.4778 59.4345 98.6593 59.7742 98.7329 60.144C98.8065 60.5138 98.7687 60.897 98.6244 61.2454C98.4801 61.5937 98.2358 61.8914 97.9223 62.1009C97.6089 62.3103 97.2403 62.4221 96.8633 62.4221C96.3577 62.4221 95.8729 62.2213 95.5154 61.8638C95.1579 61.5063 94.957 61.0214 94.957 60.5159Z" fill="#83FFD2"/>
<path d="M84.8848 51.422C84.8848 51.045 84.9966 50.6764 85.206 50.3629C85.4155 50.0495 85.7132 49.8051 86.0615 49.6609C86.4098 49.5166 86.7931 49.4788 87.1629 49.5524C87.5327 49.6259 87.8723 49.8075 88.1389 50.0741C88.4055 50.3407 88.5871 50.6803 88.6606 51.0501C88.7342 51.4199 88.6964 51.8032 88.5522 52.1515C88.4079 52.4998 88.1636 52.7975 87.8501 53.007C87.5366 53.2164 87.168 53.3282 86.791 53.3282C86.2854 53.3282 85.8006 53.1274 85.4431 52.7699C85.0856 52.4124 84.8848 51.9276 84.8848 51.422Z" fill="#83FFD2"/>
<path d="M84.8848 69.6096C84.8848 69.2326 84.9966 68.864 85.206 68.5506C85.4155 68.2371 85.7132 67.9928 86.0615 67.8485C86.4098 67.7042 86.7931 67.6664 87.1629 67.74C87.5327 67.8136 87.8723 67.9951 88.1389 68.2617C88.4055 68.5283 88.5871 68.8679 88.6606 69.2377C88.7342 69.6075 88.6964 69.9908 88.5522 70.3391C88.4079 70.6874 88.1636 70.9851 87.8501 71.1946C87.5366 71.4041 87.168 71.5159 86.791 71.5159C86.2854 71.5159 85.8006 71.315 85.4431 70.9575C85.0856 70.6 84.8848 70.1152 84.8848 69.6096Z" fill="#83FFD2"/>
<path d="M60.001 95.4691C60.378 95.4691 60.7465 95.5809 61.06 95.7904C61.3735 95.9998 61.6178 96.2976 61.7621 96.6459C61.9064 96.9942 61.9442 97.3775 61.8706 97.7473C61.797 98.117 61.6155 98.4567 61.3489 98.7233C61.0823 98.9899 60.7426 99.1714 60.3729 99.245C60.0031 99.3185 59.6198 99.2808 59.2715 99.1365C58.9232 98.9922 58.6254 98.7479 58.416 98.4344C58.2065 98.1209 58.0947 97.7524 58.0947 97.3754C58.0947 96.8698 58.2956 96.3849 58.6531 96.0274C59.0105 95.67 59.4954 95.4691 60.001 95.4691Z" fill="#83FFD2"/>
<path d="M69.0908 85.3988C69.4678 85.3988 69.8364 85.5106 70.1499 85.7201C70.4634 85.9295 70.7077 86.2272 70.852 86.5756C70.9962 86.9239 71.034 87.3072 70.9604 87.6769C70.8869 88.0467 70.7053 88.3864 70.4387 88.653C70.1722 88.9196 69.8325 89.1011 69.4627 89.1747C69.0929 89.2482 68.7097 89.2105 68.3613 89.0662C68.013 88.9219 67.7153 88.6776 67.5058 88.3641C67.2964 88.0506 67.1846 87.6821 67.1846 87.3051C67.1846 86.7995 67.3854 86.3146 67.7429 85.9571C68.1004 85.5996 68.5853 85.3988 69.0908 85.3988Z" fill="#83FFD2"/>
<path d="M50.9033 85.3988C51.2803 85.3988 51.6489 85.5106 51.9624 85.7201C52.2759 85.9295 52.5202 86.2272 52.6645 86.5756C52.8087 86.9239 52.8465 87.3072 52.7729 87.6769C52.6994 88.0467 52.5178 88.3864 52.2512 88.653C51.9847 88.9196 51.645 89.1011 51.2752 89.1747C50.9054 89.2482 50.5222 89.2105 50.1738 89.0662C49.8255 88.9219 49.5278 88.6776 49.3183 88.3641C49.1089 88.0506 48.9971 87.6821 48.9971 87.3051C48.9971 86.7995 49.1979 86.3146 49.5554 85.9571C49.9129 85.5996 50.3978 85.3988 50.9033 85.3988Z" fill="#83FFD2"/>
</svg>
