<svg width="120" height="120" viewBox="0 0 120 120" fill="none" xmlns="http://www.w3.org/2000/svg">
<rect x="1.5" y="1.5" width="117" height="117" rx="22.5" fill="white"/>
<rect x="1.5" y="1.5" width="117" height="117" rx="22.5" stroke="#33CCB7" stroke-width="3"/>
<path fill-rule="evenodd" clip-rule="evenodd" d="M32.7469 57.8278H30.0578C29.3418 57.8278 28.759 57.2459 28.759 56.53C28.759 55.814 29.342 55.2323 30.0578 55.2323H32.7469C33.4648 55.2323 34.045 55.8123 34.045 56.53C34.045 57.2476 33.4648 57.8278 32.7469 57.8278ZM71.8301 57.8278H69.1401C68.4224 57.8278 67.8423 57.2459 67.8423 56.53C67.8423 55.814 68.4224 55.2323 69.1401 55.2323H71.8301C72.5471 55.2323 73.128 55.8123 73.128 56.53C73.128 57.2476 72.5469 57.8278 71.8301 57.8278ZM81.3479 57.8278H78.6589C77.9428 57.8278 77.3601 57.2459 77.3601 56.53C77.3601 55.814 77.943 55.2323 78.6589 55.2323H81.3479C82.0659 55.2323 82.646 55.8123 82.646 56.53C82.646 57.2476 82.0659 57.8278 81.3479 57.8278ZM90.8676 57.8278H88.1786C87.4608 57.8278 86.8798 57.2459 86.8798 56.53C86.8798 55.814 87.4608 55.2323 88.1786 55.2323H90.8676C91.5837 55.2323 92.1657 55.8123 92.1657 56.53C92.1657 57.2476 91.5837 57.8278 90.8676 57.8278ZM67.853 62.7866C67.4901 62.7866 67.128 62.6347 66.8706 62.3397L65.1749 60.3832C64.7064 59.8416 64.7637 59.022 65.3053 58.5536C65.847 58.0826 66.6668 58.1415 67.1379 58.6823L68.8328 60.6369C69.302 61.1785 69.244 62 68.7023 62.4692C68.4565 62.6828 68.1535 62.7864 67.853 62.7864V62.7866ZM73.8567 69.7108C73.4928 69.7108 73.1334 69.558 72.8752 69.2639L71.1802 67.3075C70.7092 66.7658 70.7691 65.9462 71.3106 65.4752C71.8524 65.0059 72.6712 65.0641 73.1406 65.6065L74.8381 67.5611C75.3066 68.1028 75.2493 68.9242 74.7076 69.3934C74.4618 69.6061 74.1588 69.7107 73.8567 69.7107V69.7108ZM79.8622 76.6351C79.4983 76.6351 79.1372 76.4823 78.8805 76.1856L77.1839 74.2317C76.7147 73.69 76.7744 72.8704 77.3152 72.3994C77.8569 71.9301 78.6767 71.9874 79.1459 72.5307L80.8425 74.4853C81.3118 75.027 81.2528 75.8466 80.7112 76.3176C80.4662 76.5284 80.1641 76.6349 79.862 76.6349L79.8622 76.6351ZM85.8677 83.5593C85.5038 83.5593 85.1427 83.4065 84.886 83.1098L83.1894 81.155C82.7202 80.6143 82.7773 79.7946 83.319 79.3236C83.8608 78.8543 84.6805 78.9116 85.1516 79.4551L86.8466 81.4098C87.3176 81.9514 87.2587 82.7701 86.7169 83.2411C86.4719 83.4528 86.1679 83.5593 85.8677 83.5593ZM91.8732 90.4826C91.5093 90.4826 91.1473 90.3307 90.8899 90.0338L89.1949 88.0792C88.7257 87.5375 88.7828 86.7189 89.3246 86.2479C89.8663 85.7785 90.686 85.8358 91.1571 86.3775L92.8521 88.334C93.3213 88.8756 93.2632 89.6943 92.7224 90.1653C92.4758 90.3771 92.1735 90.4826 91.8732 90.4826ZM60.4626 67.851C59.7449 67.851 59.1646 67.27 59.1646 66.5533V63.8638C59.1646 63.1488 59.7447 62.5661 60.4626 62.5661C61.1806 62.5661 61.7607 63.1488 61.7607 63.8638V66.5533C61.7607 67.2702 61.1806 67.851 60.4626 67.851ZM60.4626 77.369C59.7449 77.369 59.1646 76.7871 59.1646 76.0712V73.3826C59.1646 72.664 59.7447 72.0838 60.4626 72.0838C61.1806 72.0838 61.7607 72.6638 61.7607 73.3826V76.0712C61.7607 76.7871 61.1806 77.369 60.4626 77.369ZM60.4626 86.8852C59.7449 86.8852 59.1646 86.3052 59.1646 85.5874V82.8988C59.1646 82.1828 59.7447 81.6009 60.4626 81.6009C61.1806 81.6009 61.7607 82.1828 61.7607 82.8988V85.5874C61.7607 86.3052 61.1806 86.8852 60.4626 86.8852ZM53.0734 62.7868C52.7713 62.7868 52.4691 62.6831 52.2223 62.4695C51.6805 62.0004 51.6234 61.1789 52.0926 60.6373L53.7893 58.6826C54.2585 58.1419 55.0784 58.0829 55.62 58.5539C56.1617 59.0223 56.2207 59.842 55.7496 60.3836L54.0547 62.3401C53.7972 62.6351 53.4352 62.787 53.0732 62.787L53.0734 62.7868ZM47.0688 69.711C46.7657 69.711 46.4636 69.6064 46.2186 69.3938C45.6769 68.9246 45.6179 68.1031 46.0871 67.5615L47.7838 65.6069C48.253 65.0643 49.0729 65.0062 49.6145 65.4756C50.1562 65.9466 50.2152 66.7662 49.746 67.3078L48.0492 69.2643C47.7936 69.5584 47.4316 69.7112 47.0686 69.7112L47.0688 69.711ZM41.0633 76.6352C40.7628 76.6352 40.459 76.5307 40.214 76.318C39.6723 75.847 39.6124 75.0274 40.0835 74.4857L41.7784 72.5311C42.2477 71.9878 43.0676 71.9305 43.611 72.3998C44.1527 72.8708 44.2099 73.6904 43.7406 74.232L42.0438 76.1859C41.7883 76.4826 41.426 76.6354 41.0633 76.6354V76.6352ZM35.0578 83.5595C34.7573 83.5595 34.4535 83.453 34.2085 83.2413C33.6668 82.7703 33.6069 81.9516 34.078 81.4099L35.7738 79.4553C36.2431 78.9118 37.0647 78.8547 37.6064 79.3238C38.1472 79.7948 38.2053 80.6144 37.7361 81.1552L36.0385 83.11C35.7829 83.4067 35.4215 83.5595 35.0578 83.5595ZM29.0541 90.4828C28.752 90.4828 28.4499 90.3772 28.203 90.1655C27.6613 89.6945 27.6042 88.8758 28.0734 88.3342L29.7683 86.3777C30.2394 85.8379 31.0592 85.7789 31.6009 86.248C32.1417 86.719 32.1998 87.5377 31.7305 88.0794L30.0356 90.034C29.7772 90.3307 29.4178 90.4828 29.0541 90.4828ZM42.2666 57.8282H39.5775C38.8598 57.8282 38.2795 57.2463 38.2795 56.5303C38.2795 55.8144 38.8596 55.2327 39.5775 55.2327H42.2666C42.9827 55.2327 43.5656 55.8127 43.5656 56.5303C43.5656 57.2479 42.9827 57.8282 42.2666 57.8282ZM51.7844 57.8282H49.0954C48.3793 57.8282 47.7973 57.2463 47.7973 56.5303C47.7973 55.8144 48.3793 55.2327 49.0954 55.2327H51.7844C52.5021 55.2327 53.0834 55.8127 53.0834 56.5303C53.0834 57.2479 52.5023 57.8282 51.7844 57.8282Z" fill="#909CD1"/>
<path fill-rule="evenodd" clip-rule="evenodd" d="M20.5642 48.8738C21.992 48.8738 23.4199 49.4154 24.5032 50.4984C26.1752 52.17 26.5569 54.663 25.6479 56.7094C24.8111 58.5939 22.9733 61.225 20.564 64.1864C18.1546 61.225 16.317 58.5939 15.48 56.7094C14.5713 54.663 14.9528 52.1702 16.6249 50.4984C17.7082 49.4152 19.1363 48.8738 20.5642 48.8738Z" fill="#00BFA5"/>
<path fill-rule="evenodd" clip-rule="evenodd" d="M20.5642 48.8738C20.7958 48.8738 21.0273 48.8881 21.2574 48.9166C21.8991 49.187 22.4995 49.5823 23.0201 50.103C24.692 51.7747 25.0737 54.2676 24.1648 56.3141C23.397 58.0428 21.7869 60.4001 19.666 63.064C17.6997 60.5623 16.2097 58.3521 15.48 56.7094C14.5713 54.6628 14.9528 52.17 16.6247 50.4984C17.708 49.4152 19.1359 48.8738 20.5638 48.8738H20.5642Z" fill="#04D2B6"/>
<path d="M20.5507 56.5672C21.8413 56.5672 22.8876 55.5211 22.8876 54.2307C22.8876 52.9403 21.8413 51.8943 20.5507 51.8943C19.2601 51.8943 18.2139 52.9403 18.2139 54.2307C18.2139 55.5211 19.2601 56.5672 20.5507 56.5672Z" fill="#F3F3FF"/>
<path fill-rule="evenodd" clip-rule="evenodd" d="M60.4526 15.0004C64.6651 15.0004 68.8773 16.5979 72.0729 19.7929C77.0055 24.7244 78.1311 32.0781 75.45 38.1154C72.9811 43.6747 67.56 51.4365 60.4526 60.1722C53.3453 51.4365 47.9242 43.6747 45.4553 38.1154C42.7742 32.0783 43.8998 24.7246 48.8324 19.7929C52.0279 16.5979 56.2402 15.0004 60.4526 15.0004Z" fill="#00BFA5"/>
<path fill-rule="evenodd" clip-rule="evenodd" d="M60.4526 15.0002C61.1358 15.0002 61.8189 15.0426 62.4977 15.1265C64.3906 15.924 66.1615 17.0904 67.6976 18.6261C72.6302 23.5577 73.7557 30.9114 71.0747 36.9487C68.8098 42.0486 64.0602 49.0023 57.8036 56.8609C52.0032 49.4811 47.6074 42.9611 45.4552 38.115C42.7742 32.0777 43.8999 24.7241 48.8323 19.7925C52.0279 16.5975 56.2401 15 60.4526 15V15.0002Z" fill="#04D2B6"/>
<path d="M60.4559 40.5509C65.5261 40.5509 69.6363 36.4414 69.6363 31.372C69.6363 26.3026 65.5261 22.1931 60.4559 22.1931C55.3856 22.1931 51.2754 26.3026 51.2754 31.372C51.2754 36.4414 55.3856 40.5509 60.4559 40.5509Z" fill="#F3F3FF"/>
<path fill-rule="evenodd" clip-rule="evenodd" d="M100.368 48.8732C101.796 48.8732 103.224 49.4148 104.307 50.4977C105.979 52.1694 106.361 54.6624 105.452 56.7088C104.615 58.5933 102.777 61.2244 100.368 64.1858C97.9583 61.2244 96.1207 58.5933 95.2837 56.7088C94.375 54.6624 94.7565 52.1696 96.4286 50.4977C97.5119 49.4146 98.9398 48.8732 100.368 48.8732H100.368Z" fill="#00BFA5"/>
<path fill-rule="evenodd" clip-rule="evenodd" d="M100.368 48.8732C100.6 48.8732 100.831 48.8874 101.061 48.916C101.703 49.1864 102.303 49.5817 102.824 50.1024C104.496 51.7741 104.877 54.267 103.968 56.3134C103.201 58.0422 101.591 60.3994 99.4697 63.0634C97.5034 60.5617 96.0134 58.3515 95.2838 56.7088C94.375 54.6622 94.7565 52.1694 96.4284 50.4977C97.5117 49.4146 98.9396 48.8732 100.368 48.8732H100.368Z" fill="#04D2B6"/>
<path d="M100.368 56.5667C101.659 56.5667 102.705 55.5206 102.705 54.2302C102.705 52.9399 101.659 51.8938 100.368 51.8938C99.0775 51.8938 98.0312 52.9399 98.0312 54.2302C98.0312 55.5206 99.0775 56.5667 100.368 56.5667Z" fill="#F3F3FF"/>
<path fill-rule="evenodd" clip-rule="evenodd" d="M20.5642 89.4111C21.992 89.4111 23.4199 89.9528 24.5032 91.0357C26.1752 92.7076 26.5569 95.2003 25.6479 97.2468C24.8111 99.1313 22.9733 101.762 20.564 104.724C18.1546 101.762 16.317 99.1313 15.48 97.2468C14.5713 95.2003 14.9528 92.7076 16.6249 91.0357C17.7082 89.9526 19.1363 89.4111 20.5642 89.4111Z" fill="#00BFA5"/>
<path fill-rule="evenodd" clip-rule="evenodd" d="M20.5642 89.4111C20.7958 89.4111 21.0273 89.4254 21.2574 89.454C21.8991 89.7243 22.4995 90.1197 23.0201 90.6404C24.692 92.3122 25.0737 94.805 24.1648 96.8514C23.397 98.5802 21.7869 100.937 19.666 103.601C17.6997 101.1 16.2097 98.8895 15.48 97.2468C14.5713 95.2001 14.9528 92.7074 16.6247 91.0357C17.708 89.9526 19.1359 89.4111 20.5638 89.4111H20.5642Z" fill="#04D2B6"/>
<path d="M20.5507 97.1042C21.8413 97.1042 22.8876 96.0581 22.8876 94.7677C22.8876 93.4773 21.8413 92.4313 20.5507 92.4313C19.2601 92.4313 18.2139 93.4773 18.2139 94.7677C18.2139 96.0581 19.2601 97.1042 20.5507 97.1042Z" fill="#F3F3FF"/>
<path fill-rule="evenodd" clip-rule="evenodd" d="M60.4556 89.4111C61.8835 89.4111 63.3114 89.9528 64.3947 91.0357C66.0666 92.7076 66.4483 95.2003 65.5393 97.2468C64.7025 99.1313 62.8648 101.762 60.4556 104.724C58.0462 101.762 56.2086 99.1313 55.3716 97.2468C54.4629 95.2003 54.8444 92.7076 56.5165 91.0357C57.5998 89.9526 59.0277 89.4111 60.4556 89.4111Z" fill="#00BFA5"/>
<path fill-rule="evenodd" clip-rule="evenodd" d="M60.4558 89.4111C60.6874 89.4111 60.9189 89.4254 61.149 89.454C61.7907 89.7243 62.3911 90.1197 62.9117 90.6404C64.5836 92.3122 64.9653 94.805 64.0564 96.8514C63.2886 98.5802 61.6785 100.937 59.5576 103.601C57.5913 101.1 56.1013 98.8895 55.3716 97.2468C54.4629 95.2001 54.8444 92.7074 56.5163 91.0357C57.5996 89.9526 59.0275 89.4111 60.4554 89.4111H60.4558Z" fill="#04D2B6"/>
<path d="M60.455 97.1045C61.7456 97.1045 62.7919 96.0585 62.7919 94.7681C62.7919 93.4777 61.7456 92.4316 60.455 92.4316C59.1644 92.4316 58.1182 93.4777 58.1182 94.7681C58.1182 96.0585 59.1644 97.1045 60.455 97.1045Z" fill="#F3F3FF"/>
<path fill-rule="evenodd" clip-rule="evenodd" d="M100.368 89.4111C101.796 89.4111 103.224 89.9528 104.307 91.0357C105.979 92.7076 106.361 95.2003 105.452 97.2468C104.615 99.1313 102.777 101.762 100.368 104.724C97.9583 101.762 96.1207 99.1313 95.2837 97.2468C94.375 95.2003 94.7565 92.7076 96.4286 91.0357C97.5119 89.9526 98.9398 89.4111 100.368 89.4111H100.368Z" fill="#00BFA5"/>
<path fill-rule="evenodd" clip-rule="evenodd" d="M100.368 89.4111C100.6 89.4111 100.831 89.4254 101.061 89.454C101.703 89.7243 102.303 90.1197 102.824 90.6404C104.496 92.3122 104.877 94.805 103.968 96.8514C103.201 98.5802 101.591 100.937 99.4697 103.601C97.5034 101.1 96.0134 98.8895 95.2838 97.2468C94.375 95.2001 94.7565 92.7074 96.4284 91.0357C97.5117 89.9526 98.9396 89.4111 100.368 89.4111H100.368Z" fill="#04D2B6"/>
<path d="M100.368 97.1045C101.659 97.1045 102.705 96.0585 102.705 94.7681C102.705 93.4777 101.659 92.4316 100.368 92.4316C99.0775 92.4316 98.0312 93.4777 98.0312 94.7681C98.0312 96.0585 99.0775 97.1045 100.368 97.1045Z" fill="#F3F3FF"/>
</svg>
