<svg width="120" height="120" viewBox="0 0 120 120" fill="none" xmlns="http://www.w3.org/2000/svg">
<rect x="1.5" y="1.5" width="117" height="117" rx="22.5" fill="white"/>
<rect x="1.5" y="1.5" width="117" height="117" rx="22.5" stroke="#33CCB7" stroke-width="3"/>
<path fill-rule="evenodd" clip-rule="evenodd" d="M29.4165 58.9453H35.0304C35.613 58.9453 36.0851 59.4175 36.0851 60C36.0851 60.5825 35.613 61.0547 35.0304 61.0547H29.4165L26.7526 65.6689H20.2066L16.9336 60L20.2066 54.3311H26.7526L29.4165 58.9453ZM60 16.9336L65.6689 20.2066V26.7526L61.0547 29.4165V35.0304C61.0547 35.613 60.5825 36.0851 60 36.0851C59.4175 36.0851 58.9453 35.613 58.9453 35.0304V29.4165L54.3311 26.7526V20.2066L60 16.9336ZM103.066 60L99.7934 65.6689H93.2474L90.5835 61.0547H84.9696C84.387 61.0547 83.9149 60.5825 83.9149 60C83.9149 59.4175 84.387 58.9453 84.9696 58.9453H90.5835L93.2474 54.3311H99.7934L103.066 60ZM60 103.066L54.3311 99.7934V93.2474L58.9453 90.5835V84.9696C58.9453 84.387 59.4175 83.9149 60 83.9149C60.5825 83.9149 61.0547 84.387 61.0547 84.9696V90.5835L65.6689 93.2474V99.7934L62.8345 101.43L60 103.066Z" fill="#08C6AC"/>
<path fill-rule="evenodd" clip-rule="evenodd" d="M60.8965 102.549L56.124 99.7933V93.4302L61.0547 90.5834L65.6689 93.2475V99.7933L62.8345 101.43L60.8965 102.549Z" fill="#08C6AC"/>
<path fill-rule="evenodd" clip-rule="evenodd" d="M95.0406 65.6689L92.3766 61.0547H86.7627C86.1802 61.0547 85.708 60.5825 85.708 60C85.708 59.4175 86.1802 58.9453 86.7627 58.9453H92.3766L95.0406 54.3311H99.7935L103.067 60L99.7935 65.6689H95.0406Z" fill="#08C6AC"/>
<path fill-rule="evenodd" clip-rule="evenodd" d="M29.4165 58.9453H35.0304C35.613 58.9453 36.0851 59.4175 36.0851 60C36.0851 60.5825 35.613 61.0547 35.0304 61.0547H29.4165L26.7526 65.6689H21.9996L18.7266 60L21.9996 54.3311H26.7526L29.4165 58.9453Z" fill="#08C6AC"/>
<path fill-rule="evenodd" clip-rule="evenodd" d="M73.5144 70.2867L70.2869 73.5142L86.6157 89.8431L84.8583 96.4016L91.523 103.066L100.627 100.627L103.067 91.5227L96.4018 84.8581L89.8433 86.6154L73.5144 70.2867ZM70.2869 46.4858L73.5144 49.7133L89.8433 33.3844L96.4018 35.1419L103.066 28.4771L100.627 19.3731L91.5229 16.9336L84.8583 23.5983L86.6156 30.1569L70.2869 46.4858ZM46.4859 49.7131L49.7135 46.4856L33.3846 30.1569L35.1421 23.5983L28.4773 16.9336L19.3733 19.3729L16.9338 28.477L23.5985 35.1415L30.1571 33.3841L46.4859 49.7129V49.7131ZM49.7133 73.5141L46.4858 70.2865L30.1569 86.6154L23.5983 84.8579L16.9336 91.5227L19.3731 100.627L28.4771 103.066L35.1417 96.4015L33.3843 89.8429L49.7131 73.5141H49.7133Z" fill="#039985"/>
<path fill-rule="evenodd" clip-rule="evenodd" d="M93.6023 102.509L100.627 100.627L103.066 91.5228L96.4017 84.8583L89.8431 86.6156L74.8326 71.6051L72.9234 73.5142L88.5931 89.1839L86.8356 95.7425L93.6023 102.509ZM47.8041 71.6049L32.2364 87.1726L26.2528 85.5693L19.7243 92.0976L22.2137 101.388L28.4771 103.066L35.1417 96.4015L33.3843 89.8429L49.7131 73.5141L47.8039 71.6049H47.8041ZM28.4771 16.9336L21.754 18.735L19.4121 27.475L26.3432 34.4061L30.1569 33.3841L32.2364 32.8269L47.8041 48.3946L49.7133 46.4854L33.3844 30.1569L35.1419 23.5983L28.4771 16.9336ZM72.9234 46.4859L74.8326 48.3951L89.8431 33.3846L96.4017 35.1421L103.066 28.4773L100.627 19.3733L93.6022 17.491L87.4946 23.5985L89.2521 30.1571L72.9234 46.4859Z" fill="#00BFA5"/>
<path d="M75.4013 75.4101C83.9121 66.8994 83.9121 53.1006 75.4013 44.5899C66.8905 36.0791 53.0918 36.0791 44.581 44.5899C36.0703 53.1006 36.0703 66.8994 44.581 75.4101C53.0918 83.9209 66.8905 83.9209 75.4013 75.4101Z" fill="#039985"/>
<path d="M73.9068 73.9188C81.594 66.2317 81.594 53.7683 73.9068 46.0812C66.2197 38.394 53.7564 38.394 46.0692 46.0812C38.3821 53.7683 38.3821 66.2317 46.0692 73.9188C53.7564 81.606 66.2197 81.606 73.9068 73.9188Z" fill="#00BFA5"/>
<path fill-rule="evenodd" clip-rule="evenodd" d="M60.8965 17.4514L56.124 20.2068V26.5699L61.0547 29.4167L65.6689 26.7525V20.2068L60.8965 17.4514Z" fill="#08C6AC"/>
<path fill-rule="evenodd" clip-rule="evenodd" d="M49.2482 49.2485C48.8365 49.6604 48.1685 49.6604 47.7568 49.2485C47.3452 48.8367 47.3452 48.1689 47.7568 47.7572C49.3487 46.1653 51.2566 44.88 53.382 43.9997C55.4256 43.1531 57.6611 42.6859 59.9995 42.6859C62.3379 42.6859 64.5733 43.1531 66.6169 43.9997C68.7423 44.88 70.6502 46.1653 72.2421 47.7572C72.654 48.1691 72.654 48.8369 72.2421 49.2485C71.8304 49.6604 71.1626 49.6604 70.7508 49.2485C69.3445 47.8423 67.6713 46.712 65.8177 45.9442C64.0305 45.204 62.0656 44.7953 59.9995 44.7953C57.9333 44.7953 55.9685 45.2038 54.1813 45.9442C52.3277 46.712 50.6542 47.8423 49.2482 49.2485ZM75.204 59.9998C75.204 59.4173 75.6762 58.9452 76.2587 58.9452C76.8413 58.9452 77.3134 59.4173 77.3134 59.9998C77.3134 64.7807 75.3754 69.1092 72.2421 72.2425C69.1088 75.3756 64.7804 77.3138 59.9995 77.3138C55.2186 77.3138 50.89 75.3758 47.7568 72.2425C44.6237 69.1092 42.6855 64.7807 42.6855 59.9998C42.6855 59.4173 43.1577 58.9452 43.7402 58.9452C44.3228 58.9452 44.7949 59.4173 44.7949 59.9998C44.7949 64.1985 46.4967 67.9998 49.248 70.7511C51.9993 73.5025 55.8006 75.2042 59.9993 75.2042C64.198 75.2042 67.9993 73.5025 70.7506 70.7511C73.5019 67.9998 75.2038 64.1985 75.2038 59.9998H75.204ZM55.7115 55.7118C55.2996 56.1235 54.6318 56.1235 54.2201 55.7118C53.8085 55.3002 53.8083 54.6322 54.2201 54.2205C54.9693 53.4713 55.8705 52.8651 56.8776 52.4479C57.8444 52.0475 58.8993 51.8264 59.9996 51.8264C61.1 51.8264 62.1547 52.0475 63.1215 52.4479C64.1286 52.8651 65.0298 53.4713 65.779 54.2205C66.1907 54.6322 66.1907 55.3 65.779 55.7118C65.3671 56.1235 64.6993 56.1235 64.2877 55.7118C63.7243 55.1485 63.0575 54.697 62.3224 54.3926C61.6119 54.0983 60.8278 53.9359 59.9996 53.9359C59.1715 53.9359 58.3874 54.0983 57.6769 54.3926C56.9418 54.697 56.2748 55.1485 55.7115 55.7118ZM52.4799 52.4803C53.4648 51.4954 54.6348 50.7045 55.9291 50.1684C57.1778 49.6511 58.5524 49.3656 59.9996 49.3656C61.4469 49.3656 62.8213 49.6511 64.0702 50.1684C65.3645 50.7045 66.5345 51.4954 67.5194 52.4803C67.9311 52.8921 68.5989 52.8921 69.0107 52.4803C69.4224 52.0684 69.4224 51.4006 69.0107 50.9889C67.8402 49.8184 66.4357 48.8725 64.8695 48.2239C63.3643 47.6004 61.7191 47.2562 59.9998 47.2562C58.2805 47.2562 56.6354 47.6004 55.1302 48.2239C53.5639 48.8725 52.1595 49.8184 50.9889 50.9889C50.5771 51.4006 50.5771 52.0684 50.9889 52.4803C51.4008 52.8921 52.0684 52.8921 52.4803 52.4803H52.4799Z" fill="white"/>
<path fill-rule="evenodd" clip-rule="evenodd" d="M58.9453 60C58.9453 59.4175 59.4175 58.9453 60 58.9453C60.5825 58.9453 61.0547 59.4175 61.0547 60V69.4486C61.0547 70.0311 60.5825 70.5033 60 70.5033C59.4175 70.5033 58.9453 70.0311 58.9453 69.4486V60Z" fill="#E9E9FF"/>
<path fill-rule="evenodd" clip-rule="evenodd" d="M59.9996 62.5485C61.4033 62.5485 62.5481 61.4036 62.5481 60C62.5481 58.5964 61.4033 57.4515 59.9996 57.4515C58.596 57.4515 57.4512 58.5964 57.4512 60C57.4512 61.4036 58.596 62.5485 59.9996 62.5485Z" fill="#F9AC00"/>
<path fill-rule="evenodd" clip-rule="evenodd" d="M60.3449 57.4753C61.5888 57.6443 62.5473 58.7102 62.5473 60.0003C62.5473 61.2903 61.5888 62.3564 60.3449 62.5252C59.1013 62.3563 58.1426 61.2903 58.1426 60.0003C58.1426 58.7102 59.1013 57.6441 60.3449 57.4753Z" fill="#FDC72E"/>
</svg>
